#!OML:ASF X:\für Bonn\!DataBase\2005_08_11_Bastian_Final\c3d\Bastian.ASF
:FULLY-SPECIFIED
:DEGREES
201
root -2.71094 5.39961 21.5526 -948.071 -12.6716 -164.273
lowerback 69.9663 4.47384 12.924
upperback 25.5232 -6.45629 0.956756
thorax 8.47927 -9.64986 -3.22244
lowerneck -6.2123 -9.40057 -14.2804
upperneck -18.0414 -11.9283 22.6803
head -1.76696 -7.25612 9.29508
rclavicle 2.22639e-014 -4.29375e-014
rhumerus -2.14999 49.3722 -62.0204
rradius 39.6093
rwrist -13.6211
rhand -14.6461 0.960359
rfingers 7.12502
rthumb 11.506 -28.7039
lclavicle 2.22639e-014 -4.29375e-014
lhumerus -2.8565 32.1987 67.7916
lradius 10.5152
lwrist 24.5993
lhand -20.1183 -18.7009
lfingers 7.12502
lthumb 6.2256 11.1876
rfemur -42.8227 -61.5802 -1.30322
rtibia 148.824
rfoot -43.8176 5.35327
rtoes -11.7953
lfemur -77.6689 30.4936 -28.535
ltibia 144.586
lfoot -24.4936 -3.21926
ltoes 35.7756
202
root -2.76283 5.32417 21.5537 -948.75 -12.1839 -164.336
lowerback 69.7179 4.30793 13.2955
upperback 25.691 -6.60675 1.0501
thorax 8.70467 -9.7705 -3.28127
lowerneck -6.21897 -9.30365 -14.3174
upperneck -17.9879 -11.8145 22.4469
head -1.79249 -7.17475 9.23393
rclavicle -3.18055e-015 -4.77083e-015
rhumerus -3.04844 49.6037 -63.0946
rradius 39.1452
rwrist -13.5139
rhand -14.5857 0.554964
rfingers 7.12502
rthumb 11.5643 -29.106
lclavicle -3.18055e-015 -4.77083e-015
lhumerus -3.22988 32.7019 68.0313
lradius 10.2934
lwrist 24.0828
lhand -19.787 -18.5805
lfingers 7.12502
lthumb 6.54543 11.2983
rfemur -40.8269 -62.4268 -4.02387
rtibia 149.12
rfoot -43.9942 6.18664
rtoes -12.0422
lfemur -77.508 30.7832 -28.9653
ltibia 144.589
lfoot -24.2628 -2.77074
ltoes 36.4307
203
root -2.81137 5.24989 21.5551 -949.485 -11.696 -164.366
lowerback 69.5548 4.14684 13.6654
upperback 25.8269 -6.75621 1.18443
thorax 8.90625 -9.90715 -3.28841
lowerneck -6.31474 -9.21583 -14.3476
upperneck -17.8751 -11.7144 22.1545
head -1.79003 -7.09128 9.14235
rclavicle 3.49861e-014 2.8625e-014
rhumerus -4.05687 49.8886 -64.1377
rradius 38.8535
rwrist -13.576
rhand -14.6408 0.116353
rfingers 7.12502
rthumb 11.5112 -29.5476
lclavicle 3.49861e-014 2.8625e-014
lhumerus -3.63895 33.3864 68.2823
lradius 10.0935
lwrist 23.5028
lhand -19.4616 -18.4769
lfingers 7.12502
lthumb 6.85956 11.3919
rfemur -38.6037 -63.2186 -6.89579
rtibia 149.39
rfoot -44.1549 6.99731
rtoes -12.3109
lfemur -77.3692 30.9536 -29.373
ltibia 144.478
lfoot -23.8714 -2.38297
ltoes 37.0135
204
root -2.85702 5.17928 21.5565 -950.22 -11.2123 -164.393
lowerback 69.4005 3.98361 14.0502
upperback 25.9657 -6.90101 1.29717
thorax 9.11225 -10.0342 -3.32875
lowerneck -6.44625 -9.12701 -14.2371
upperneck -17.7599 -11.6218 21.8092
head -1.79339 -7.01777 9.00791
rclavicle 4.13472e-014 0
rhumerus -5.15648 50.1718 -65.257
rradius 38.6613
rwrist -13.7274
rhand -14.8119 -0.446269
rfingers 7.12502
rthumb 11.3462 -30.1193
lclavicle 4.13472e-014 0
lhumerus -4.08284 33.6285 68.47
lradius 10.0236
lwrist 23.35
lhand -19.1714 -18.2807
lfingers 7.12502
lthumb 7.13967 11.5789
rfemur -36.1543 -63.9783 -9.95104
rtibia 149.637
rfoot -44.3596 7.77535
rtoes -12.5303
lfemur -77.2298 31.0043 -29.7761
ltibia 144.209
lfoot -23.3321 -2.00185
ltoes 37.2747
205
root -2.89962 5.1115 21.5607 -950.974 -10.7541 -164.413
lowerback 69.3032 3.82226 14.416
upperback 26.0708 -7.04408 1.44053
thorax 9.28669 -10.1709 -3.32038
lowerneck -6.56618 -9.0475 -14.1953
upperneck -17.6241 -11.5374 21.4678
head -1.78591 -6.9425 8.88494
rclavicle -6.36111e-015 1.27222e-014
rhumerus -6.33642 50.4078 -66.4052
rradius 38.4721
rwrist -13.8346
rhand -15.0331 -0.952401
rfingers 7.12502
rthumb 11.1329 -30.6371
lclavicle -6.36111e-015 1.27222e-014
lhumerus -4.60183 33.6395 68.6707
lradius 10.0264
lwrist 23.4504
lhand -18.9134 -18.055
lfingers 7.12502
lthumb 7.38875 11.796
rfemur -33.6992 -64.6387 -12.9879
rtibia 149.844
rfoot -44.4888 8.48276
rtoes -12.94
lfemur -77.1033 30.8663 -30.1816
ltibia 143.767
lfoot -22.5962 -1.69178
ltoes 37.2743
206
root -2.94093 5.04643 21.5653 -951.707 -10.2993 -164.459
lowerback 69.1961 3.68755 14.7515
upperback 26.1872 -7.18734 1.57461
thorax 9.47267 -10.3106 -3.31408
lowerneck -6.69938 -8.96024 -14.1023
upperneck -17.5138 -11.4473 21.1084
head -1.78908 -6.87004 8.74957
rclavicle 4.45278e-014 6.83819e-014
rhumerus -7.49992 50.6319 -67.5695
rradius 38.2073
rwrist -13.9475
rhand -15.3307 -1.39021
rfingers 7.12502
rthumb 10.8457 -31.0902
lclavicle 4.45278e-014 6.83819e-014
lhumerus -5.09256 34.1953 68.8407
lradius 9.99882
lwrist 23.0259
lhand -18.6342 -17.8336
lfingers 7.12502
lthumb 7.65826 12.0078
rfemur -31.3242 -65.1479 -15.9365
rtibia 150.022
rfoot -44.6056 9.22447
rtoes -13.1733
lfemur -77.0062 30.666 -30.6168
ltibia 143.184
lfoot -21.7458 -1.4594
ltoes 36.8551
207
root -2.98099 4.98353 21.5715 -952.418 -9.82168 -164.48
lowerback 69.1092 3.5479 15.0892
upperback 26.2646 -7.30941 1.7196
thorax 9.61528 -10.4375 -3.2935
lowerneck -6.78476 -8.8645 -14.0414
upperneck -17.3942 -11.3426 20.7587
head -1.79598 -6.78796 8.62617
rclavicle 5.56597e-014 -2.38542e-014
rhumerus -8.71989 50.7605 -68.7942
rradius 37.8351
rwrist -13.9616
rhand -15.6113 -1.75537
rfingers 7.12502
rthumb 10.5751 -31.4693
lclavicle 5.56597e-014 -2.38542e-014
lhumerus -5.61977 34.741 69.0068
lradius 9.96291
lwrist 22.6491
lhand -18.3544 -17.6506
lfingers 7.12502
lthumb 7.92829 12.1808
rfemur -29.0948 -65.5674 -18.6994
rtibia 150.181
rfoot -44.6798 9.96719
rtoes -13.3396
lfemur -76.9657 30.3603 -31.0801
ltibia 142.45
lfoot -20.743 -1.15409
ltoes 36.1192
208
root -3.01901 4.92263 21.58 -953.085 -9.34839 -164.499
lowerback 69.0116 3.41008 15.4089
upperback 26.3462 -7.44457 1.84593
thorax 9.75944 -10.5675 -3.28384
lowerneck -6.92083 -8.76785 -13.9153
upperneck -17.2592 -11.2421 20.3676
head -1.79667 -6.70955 8.47518
rclavicle -3.18055e-014 6.36111e-015
rhumerus -9.89763 50.7656 -70.0336
rradius 37.4358
rwrist -13.8548
rhand -15.8653 -2.04718
rfingers 7.12502
rthumb 10.3301 -31.7735
lclavicle -3.18055e-014 6.36111e-015
lhumerus -6.10802 35.3217 69.149
lradius 9.92528
lwrist 22.2837
lhand -18.1188 -17.5238
lfingers 7.12502
lthumb 8.15572 12.2989
rfemur -27.5502 -65.7627 -20.7001
rtibia 150.316
rfoot -44.6087 10.5768
rtoes -13.6785
lfemur -76.9454 29.979 -31.5695
ltibia 141.55
lfoot -19.6746 -0.823484
ltoes 35.0812
209
root -3.05506 4.86355 21.59 -953.723 -8.85951 -164.534
lowerback 68.9328 3.31327 15.6728
upperback 26.3925 -7.54976 2.00301
thorax 9.8627 -10.6951 -3.21791
lowerneck -7.01458 -8.65914 -13.8649
upperneck -17.1267 -11.1217 19.9729
head -1.80327 -6.61663 8.33991
rclavicle -1.59028e-014 3.18055e-014
rhumerus -11.0878 50.7562 -71.238
rradius 37.0348
rwrist -13.6658
rhand -16.0711 -2.39547
rfingers 7.12502
rthumb 10.1316 -32.1315
lclavicle -1.59028e-014 3.18055e-014
lhumerus -6.62846 35.9305 69.327
lradius 9.85013
lwrist 21.9255
lhand -17.9307 -17.4847
lfingers 7.12502
lthumb 8.33724 12.3308
rfemur -26.4248 -65.8168 -22.2059
rtibia 150.424
rfoot -44.4615 11.1275
rtoes -14.0082
lfemur -76.9379 29.5582 -31.9628
ltibia 140.513
lfoot -18.4539 -0.602396
ltoes 34.2114
210
root -3.08941 4.80696 21.6026 -954.334 -8.39617 -164.568
lowerback 68.8532 3.19618 15.9398
upperback 26.431 -7.65849 2.12305
thorax 9.95106 -10.8092 -3.18979
lowerneck -7.11135 -8.56226 -13.7213
upperneck -16.9706 -11.0233 19.5411
head -1.80656 -6.5372 8.17449
rclavicle 1.11319e-014 3.18055e-015
rhumerus -12.3029 50.864 -72.4821
rradius 36.6226
rwrist -13.6591
rhand -16.3255 -2.73089
rfingers 7.12502
rthumb 9.88611 -32.4788
lclavicle 1.11319e-014 3.18055e-015
lhumerus -7.22814 36.4919 69.3807
lradius 9.88745
lwrist 21.6972
lhand -17.6884 -17.3841
lfingers 7.12502
lthumb 8.57103 12.4219
rfemur -25.6105 -65.8332 -23.4056
rtibia 150.519
rfoot -44.2649 11.6774
rtoes -14.2863
lfemur -76.9417 29.0924 -32.3005
ltibia 139.355
lfoot -17.1292 -0.424787
ltoes 33.3005
211
root -3.12228 4.75195 21.6146 -954.952 -7.9267 -164.608
lowerback 68.8057 3.10211 16.1775
upperback 26.4431 -7.74956 2.27343
thorax 10.0124 -10.9271 -3.1149
lowerneck -7.17864 -8.45738 -13.66
upperneck -16.793 -10.9059 19.1367
head -1.80307 -6.44284 8.0333
rclavicle 4.13472e-014 -1.74931e-014
rhumerus -13.5745 51.1308 -73.7019
rradius 36.2334
rwrist -13.7657
rhand -16.6257 -3.05563
rfingers 7.12502
rthumb 9.59649 -32.8171
lclavicle 4.13472e-014 -1.74931e-014
lhumerus -7.84318 37.0729 69.4731
lradius 9.89042
lwrist 21.4749
lhand -17.5091 -17.3831
lfingers 7.12502
lthumb 8.74412 12.4157
rfemur -24.8599 -65.8006 -24.4997
rtibia 150.601
rfoot -44.0387 12.2548
rtoes -14.4589
lfemur -76.8682 28.6843 -32.5532
ltibia 138.11
lfoot -15.8031 -0.318062
ltoes 32.2681
212
root -3.15272 4.69818 21.6272 -955.526 -7.44825 -164.637
lowerback 68.7226 3.00481 16.434
upperback 26.4683 -7.83364 2.40608
thorax 10.0869 -11.0303 -3.07339
lowerneck -7.35566 -10.7045 -13.2494
upperneck -15.9249 -10.6117 19.1809
head -1.49179 -4.25836 7.84913
rclavicle -2.54444e-014 9.54166e-015
rhumerus -14.8368 51.2501 -74.9684
rradius 35.8379
rwrist -13.7789
rhand -16.8951 -3.42789
rfingers 7.12502
rthumb 9.33652 -33.2011
lclavicle -2.54444e-014 9.54166e-015
lhumerus -8.47534 37.6203 69.4859
lradius 9.9735
lwrist 21.372
lhand -17.305 -17.3009
lfingers 7.12502
lthumb 8.94107 12.4896
rfemur -24.3835 -65.724 -25.2302
rtibia 150.665
rfoot -43.8108 12.7114
rtoes -14.8169
lfemur -76.8079 28.2596 -32.7503
ltibia 136.761
lfoot -14.4994 -0.188295
ltoes 30.6223
213
root -3.1817 4.64438 21.641 -956.102 -6.99398 -164.661
lowerback 68.6698 2.89929 16.6774
upperback 26.4665 -7.9144 2.54489
thorax 10.1304 -11.1324 -3.0124
lowerneck -7.46497 -10.5789 -13.0948
upperneck -15.7137 -10.5105 18.6908
head -1.48187 -4.21689 7.66465
rclavicle -3.18055e-015 -3.18055e-014
rhumerus -16.1472 51.4348 -76.2568
rradius 35.4489
rwrist -13.923
rhand -17.207 -3.80112
rfingers 7.12502
rthumb 9.03565 -33.5876
lclavicle -3.18055e-015 -3.18055e-014
lhumerus -9.12278 38.1582 69.507
lradius 10.0289
lwrist 21.2455
lhand -17.1257 -17.3187
lfingers 7.12502
lthumb 9.114 12.4644
rfemur -24.0631 -65.6523 -25.8215
rtibia 150.735
rfoot -43.5077 13.1895
rtoes -15.0679
lfemur -76.6815 27.8123 -32.892
ltibia 135.306
lfoot -13.2707 -0.077457
ltoes 28.7694
214
root -3.20864 4.59273 21.6559 -956.645 -6.54755 -164.709
lowerback 68.5945 2.82948 16.8798
upperback 26.468 -7.98007 2.69506
thorax 10.1752 -11.2324 -2.9283
lowerneck -7.49967 -10.457 -13.0294
upperneck -15.5803 -10.4041 18.2518
head -1.49634 -4.17107 7.51791
rclavicle 1.59028e-015 -3.18055e-014
rhumerus -17.445 51.542 -77.5211
rradius 35.0964
rwrist -14.1052
rhand -17.5336 -4.21714
rfingers 7.12502
rthumb 8.72048 -34.017
lclavicle 1.59028e-015 -3.18055e-014
lhumerus -9.7391 38.2684 69.5924
lradius 10.1216
lwrist 21.5815
lhand -17.0237 -17.3876
lfingers 7.12502
lthumb 9.21248 12.3912
rfemur -24.1131 -65.5062 -25.9943
rtibia 150.797
rfoot -43.1762 13.6074
rtoes -15.3544
lfemur -76.4998 27.3818 -32.9672
ltibia 133.748
lfoot -12.1068 -0.0736512
ltoes 26.8039
215
root -3.23343 4.5419 21.6702 -957.206 -6.08519 -164.753
lowerback 68.5385 2.76659 17.1056
upperback 26.4672 -8.02306 2.84842
thorax 10.2217 -11.3205 -2.85653
lowerneck -7.51552 -10.3319 -12.969
upperneck -15.4296 -10.2966 17.8556
head -1.50407 -4.12757 7.38588
rclavicle 3.81667e-014 -1.74931e-014
rhumerus -18.7321 51.5459 -78.7873
rradius 34.7312
rwrist -14.3029
rhand -17.8379 -4.57818
rfingers 7.12502
rthumb 8.4268 -34.3901
lclavicle 3.81667e-014 -1.74931e-014
lhumerus -10.3303 38.4487 69.6536
lradius 10.1571
lwrist 21.763
lhand -16.9209 -17.5206
lfingers 7.12502
lthumb 9.31165 12.2537
rfemur -24.023 -65.3621 -26.2262
rtibia 150.842
rfoot -42.8637 13.9586
rtoes -15.7373
lfemur -76.2272 27.0058 -32.9519
ltibia 132.112
lfoot -10.9786 -0.100329
ltoes 24.9816
